HIERARCHY
ROOT Hips
{
    OFFSET 0.000000 0.000000 0.000000
    CHANNELS 6 Xposition Yposition Zposition Zrotation Xrotation Yrotation
    JOINT Spine
    {
        OFFSET -0.000000 7.236184 0.000000
        CHANNELS 3 Zrotation Xrotation Yrotation
        JOINT Spine1
        {
            OFFSET -0.000000 20.420147 0.000000
            CHANNELS 3 Zrotation Xrotation Yrotation
            JOINT Neck
            {
                OFFSET -0.000000 20.336288 1.848754
                CHANNELS 3 Zrotation Xrotation Yrotation
                JOINT Head
                {
                    OFFSET -0.000000 12.354461 -1.764923
                    CHANNELS 3 Zrotation Xrotation Yrotation
                    End Site
                    {
                        OFFSET -0.000000 22.061537 0.000000
                    }
                }
            }
            JOINT LeftShoulder
            {
                OFFSET 3.573296 18.396038 -0.314103
                CHANNELS 3 Zrotation Xrotation Yrotation
                JOINT LeftArm
                {
                    OFFSET 10.880760 0.000000 0.000000
                    CHANNELS 3 Zrotation Xrotation Yrotation
                    JOINT LeftForeArm
                    {
                        OFFSET 27.185530 0.000000 0.000000
                        CHANNELS 3 Zrotation Xrotation Yrotation
                        JOINT LeftHand
                        {
                            OFFSET 27.825975 0.000000 0.000000
                            CHANNELS 3 Zrotation Xrotation Yrotation
                            End Site
                            {
                                OFFSET 13.236923 0.000000 0.000000
                            }
                        }
                    }
                }
            }
            JOINT RightShoulder
            {
                OFFSET -3.474926 18.396038 -0.314103
                CHANNELS 3 Zrotation Xrotation Yrotation
                JOINT RightArm
                {
                    OFFSET -10.880760 0.000000 0.000000
                    CHANNELS 3 Zrotation Xrotation Yrotation
                    JOINT RightForeArm
                    {
                        OFFSET -27.185530 0.000000 0.000000
                        CHANNELS 3 Zrotation Xrotation Yrotation
                        JOINT RightHand
                        {
                            OFFSET -27.825975 0.000000 0.000000
                            CHANNELS 3 Zrotation Xrotation Yrotation
                            End Site
                            {
                                OFFSET -13.236923 0.000000 0.000000
                            }
                        }
                    }
                }
            }
        }
    }
    JOINT LeftUpLeg
    {
        OFFSET 8.824615 0.000000 0.000000
        CHANNELS 3 Zrotation Xrotation Yrotation
        JOINT LeftLeg
        {
            OFFSET -0.000000 -35.111282 0.000000
            CHANNELS 3 Zrotation Xrotation Yrotation
            JOINT LeftFoot
            {
                OFFSET -0.000000 -42.324711 0.000000
                CHANNELS 3 Zrotation Xrotation Yrotation
                JOINT LeftToeBase
                {
                    OFFSET -0.000000 -5.735999 13.236923
                    CHANNELS 3 Zrotation Xrotation Yrotation
                    End Site
                    {
                        OFFSET -0.000000 0.000000 3.529846
                    }
                }
            }
        }
    }
    JOINT RightUpLeg
    {
        OFFSET -8.824615 0.000000 0.000000
        CHANNELS 3 Zrotation Xrotation Yrotation
        JOINT RightLeg
        {
            OFFSET -0.000000 -35.111282 0.000000
            CHANNELS 3 Zrotation Xrotation Yrotation
            JOINT RightFoot
            {
                OFFSET -0.000000 -42.324711 0.000000
                CHANNELS 3 Zrotation Xrotation Yrotation
                JOINT RightToeBase
                {
                    OFFSET -0.000000 -5.735999 13.236923
                    CHANNELS 3 Zrotation Xrotation Yrotation
                    End Site
                    {
                        OFFSET -0.000000 0.000000 3.529846
                    }
                }
            }
        }
    }
}
MOTION
Frames:    10
Frame Time:    0.008333
-8.959113    80.731178    100.932762    2.358065    -16.017464    -178.626221    -2.015291    -8.449131    0.953135    -0.863473    7.941499    1.161961    1.743604    6.516889    -4.064943    8.866718    -5.167216    -2.730995    9.873535    -1.093651    -16.565731    -12.384423    13.760987    -70.517006    15.427192    5.875846    -19.200415    17.516941    7.454834    -6.716941    -4.931842    4.482308    9.575236    20.807312    9.609849    62.592026    -18.146240    -12.734428    28.415199    -13.777324    -8.537616    3.014460    4.694193    -31.932291    1.834950    2.121548    36.169197    4.235953    -5.557322    -13.466650    -13.093145    -0.093914    -2.561328    0.104591    -6.678664    -24.459429    0.433713    2.492373    23.495630    5.033980    3.873413    -9.986036    -11.437243    -1.506976    -2.941252    1.636657    
-8.798215    80.723953    100.870346    2.232417    -15.996943    -178.653442    -1.965764    -8.465710    0.944183    -0.925126    7.896037    1.153575    1.790602    6.597168    -3.999612    8.688581    -5.065532    -2.706738    9.806028    -0.800452    -16.243565    -12.849624    14.416409    -68.996460    16.943937    5.263342    -21.361383    17.670713    7.454975    -6.521705    -4.877524    4.645320    9.297565    20.704790    10.350435    61.464211    -19.065128    -13.072883    30.415319    -13.755919    -8.273702    2.894955    4.700687    -31.857864    1.878051    2.136396    36.158249    4.190781    -5.673565    -13.440405    -13.123302    -0.142644    -2.597232    0.158873    -6.663525    -24.553646    0.463348    2.490982    23.790077    5.052935    3.787362    -10.108836    -11.473916    -1.489179    -2.942317    1.617332    
-8.635342    80.718460    100.801376    2.101813    -15.981797    -178.680618    -1.910478    -8.481333    0.936232    -0.993214    7.838053    1.146009    1.842330    6.690730    -3.932571    8.501450    -4.972131    -2.681618    9.712787    -0.463075    -15.864774    -13.395635    15.098096    -67.343872    18.543339    4.542635    -23.704311    17.804928    7.471870    -6.261794    -4.811975    4.832647    8.969240    20.629007    11.152420    60.231953    -20.061899    -13.469645    32.564304    -13.777451    -7.974064    2.730605    4.702787    -31.779348    1.908942    2.144434    36.137596    4.151006    -5.789755    -13.407929    -13.149482    -0.193829    -2.637087    0.215898    -6.649886    -24.644842    0.496241    2.488559    24.077436    5.065080    3.698118    -10.224824    -11.513192    -1.473016    -2.947171    1.599789    
-8.472107    80.714630    100.726578    1.967905    -15.972699    -178.708328    -1.850199    -8.495681    0.929565    -1.065982    7.769610    1.139450    1.895611    6.794534    -3.865113    8.311481    -4.888858    -2.655418    9.593919    -0.083162    -15.431377    -14.021131    15.791992    -65.573700    20.190001    3.713307    -26.196215    17.913048    7.508212    -5.932861    -4.736918    5.044335    8.591757    20.597708    12.001835    58.907818    -21.119005    -13.931493    34.830437    -13.841293    -7.645403    2.515247    4.701150    -31.698528    1.926182    2.144727    36.108578    4.119696    -5.904604    -13.369189    -13.171644    -0.246823    -2.680812    0.274949    -6.637113    -24.732309    0.534245    2.485643    24.353956    5.070126    3.606148    -10.333038    -11.556129    -1.459435    -2.956075    1.585059    
-8.305071    80.712196    100.644539    1.828503    -15.970106    -178.737946    -1.783834    -8.508936    0.924242    -1.143646    7.691088    1.133890    1.952632    6.908174    -3.795744    8.112282    -4.815135    -2.628063    9.447448    0.348950    -14.931819    -14.743580    16.504732    -63.647854    21.895191    2.751411    -28.875584    17.991066    7.567321    -5.521438    -4.652283    5.286385    8.155775    20.629032    12.909174    57.462460    -22.248413    -14.477278    37.250046    -13.944715    -7.282898    2.237387    4.696686    -31.615276    1.929723    2.136964    36.072319    4.098231    -6.020755    -13.323016    -13.190825    -0.302523    -2.729539    0.337028    -6.623712    -24.818560    0.579887    2.482122    24.625101    5.068371    3.508491    -10.436143    -11.604983    -1.448830    -2.969326    1.573572    
-8.137711    80.710884    100.557205    1.687238    -15.974475    -178.769592    -1.713221    -8.520957    0.920530    -1.222630    7.607014    1.129514    2.010029    7.026599    -3.726331    7.910923    -4.754091    -2.599779    9.276889    0.825017    -14.374598    -15.551748    17.212820    -61.606876    23.596443    1.675520    -31.667881    18.032267    7.650687    -5.031504    -4.561479    5.555777    7.669114    20.740494    13.845763    55.924507    -23.412857    -15.101471    39.760128    -14.078856    -6.895169    1.897724    4.690545    -31.533028    1.919429    2.121280    36.031879    4.088761    -6.136475    -13.270240    -13.207469    -0.359649    -2.782787    0.400710    -6.608718    -24.902487    0.633446    2.478011    24.885441    5.060517    3.406302    -10.532828    -11.659901    -1.441930    -2.986118    1.566115    
-7.968135    80.710281    100.464035    1.543186    -15.986061    -178.804138    -1.638517    -8.531641    0.918495    -1.301279    7.519214    1.126320    2.068067    7.147346    -3.656220    7.704336    -4.705276    -2.570601    9.081880    1.348545    -13.753347    -16.457941    17.916868    -59.430977    25.284552    0.478600    -34.579304    18.032574    7.760971    -4.457289    -4.465575    5.857310    7.126139    20.949961    14.810095    54.276070    -24.608318    -15.812201    42.373848    -14.235991    -6.478243    1.490756    4.683628    -31.452911    1.895634    2.097833    35.989750    4.092094    -6.253350    -13.210687    -13.222488    -0.418477    -2.841124    0.466306    -6.590880    -24.986238    0.695453    2.472640    25.139229    5.048604    3.297600    -10.625636    -11.722614    -1.438852    -3.005795    1.562817    
-7.797208    80.709915    100.366035    1.397798    -16.004770    -178.841904    -1.561099    -8.540812    0.918205    -1.376457    7.431615    1.124266    2.122672    7.267118    -3.586331    7.498702    -4.670501    -2.540002    8.864981    1.913792    -13.071605    -17.461143    18.606140    -57.134399    26.921837    -0.823537    -37.567192    17.990326    7.898376    -3.804726    -4.366513    6.190691    6.530002    21.270895    15.784775    52.523537    -25.810106    -16.604509    45.062511    -14.404670    -6.034510    1.019480    4.676849    -31.377369    1.859338    2.067662    35.949318    4.108815    -6.371763    -13.145222    -13.237179    -0.478456    -2.903658    0.533203    -6.569174    -25.070648    0.764666    2.465087    25.387060    5.035249    3.182478    -10.715804    -11.793251    -1.439419    -3.027617    1.563483    
-7.623848    80.709259    100.263168    1.250821    -16.030468    -178.883286    -1.481748    -8.548125    0.919582    -1.445335    7.346897    1.123198    2.176594    7.383264    -3.515645    7.285920    -4.650511    -2.508753    8.628169    2.526925    -12.322535    -18.570793    19.273325    -54.713051    28.490435    -2.223177    -40.618202    17.906204    8.063523    -3.077500    -4.264878    6.559911    5.877354    21.718218    16.762270    50.653194    -27.005432    -17.478645    47.827843    -14.576302    -5.561327    0.484068    4.670925    -31.308060    1.811054    2.031366    35.913937    4.139417    -6.493088    -13.074368    -13.252851    -0.539508    -2.971241    0.601318    -6.542528    -25.157484    0.840246    2.454274    25.632710    5.023290    3.059125    -10.805718    -11.872929    -1.443404    -3.050384    1.567862    
-7.449033    80.707695    100.156761    1.103766    -16.062590    -178.928131    -1.402173    -8.552939    0.922521    -1.504103    7.268688    1.122935    2.220371    7.493240    -3.445831    7.080750    -4.646819    -2.475137    8.373118    3.176733    -11.513503    -19.784790    19.912161    -52.182301    29.956833    -3.693102    -43.684059    17.783854    8.253634    -2.290498    -4.162039    6.963901    5.172674    22.299683    17.723141    48.672638    -28.166628    -18.421375    50.638523    -14.741989    -5.061725    -0.105461    4.666571    -31.247606    1.752518    1.990601    35.887459    4.183284    -6.617133    -12.999605    -13.270844    -0.600653    -3.042718    0.669559    -6.510222    -25.247578    0.920153    2.439073    25.877403    5.015595    2.927939    -10.896788    -11.961190    -1.450222    -3.072513    1.575319    
